<?xml version="1.0" standalone="no"?>
<!DOCTYPE svg PUBLIC "-//W3C//DTD SVG 20010904//EN"
 "http://www.w3.org/TR/2001/REC-SVG-20010904/DTD/svg10.dtd">
<svg version="1.0" xmlns="http://www.w3.org/2000/svg"
 width="450.000000pt" height="450.000000pt" viewBox="0 0 450.000000 450.000000"
 preserveAspectRatio="xMidYMid meet">
<metadata>
Created by potrace 1.11, written by Peter Selinger 2001-2013
</metadata>
<g transform="translate(0.000000,450.000000) scale(0.100000,-0.100000)"
fill="#000000" stroke="none">
<path d="M0 2250 l0 -2250 2250 0 2250 0 0 2250 0 2250 -2250 0 -2250 0 0
-2250z m3882 1098 c-3 -376 -6 -516 -14 -498 -83 198 -193 309 -413 416 -198
96 -389 138 -635 137 -421 0 -791 -153 -1091 -453 -350 -349 -555 -840 -634
-1515 -18 -153 -32 -415 -22 -415 3 0 35 22 71 49 266 202 565 278 1256 321
502 31 675 67 831 171 143 96 209 239 209 454 0 126 -12 192 -49 270 -79 168
-257 276 -456 277 -134 1 -239 -32 -364 -113 -72 -48 -73 -48 -67 -21 12 47
98 163 156 209 228 179 559 215 815 88 71 -34 197 -137 242 -197 43 -57 109
-209 134 -308 22 -88 24 -120 27 -419 4 -337 -1 -392 -39 -526 -25 -85 -87
-209 -144 -290 -122 -172 -340 -316 -570 -378 -80 -21 -87 -21 -1308 -24
l-1228 -4 3 1233 c3 1231 3 1233 25 1309 33 118 78 215 148 319 147 222 345
356 603 410 82 17 162 19 1302 19 l1215 1 -3 -522z"/>
</g>
</svg>
